<?xml version="1.0" encoding="UTF-8" standalone="no"?>
<svg
   xmlns:dc="http://purl.org/dc/elements/1.1/"
   xmlns:cc="http://creativecommons.org/ns#"
   xmlns:rdf="http://www.w3.org/1999/02/22-rdf-syntax-ns#"
   xmlns:svg="http://www.w3.org/2000/svg"
   xmlns="http://www.w3.org/2000/svg"
   viewBox="0 0 265.33334 265.33334"
   height="265.33334"
   width="265.33334"
   xml:space="preserve"
   id="svg2"
   version="1.1"><metadata
     id="metadata8"><rdf:RDF><cc:Work
         rdf:about=""><dc:format>image/svg+xml</dc:format><dc:type
           rdf:resource="http://purl.org/dc/dcmitype/StillImage" /></cc:Work></rdf:RDF></metadata><defs
     id="defs6" /><g
     transform="matrix(1.3333333,0,0,-1.3333333,0,265.33333)"
     id="g10"><g
       transform="scale(0.1)"
       id="g12"><path
         id="path14"
         style="fill:#ffffff;fill-opacity:1;fill-rule:evenodd;stroke:none"
         d="M 7.875,1987.11 H 1984.22 V 10.7656 H 7.875 V 1987.11" /><path
         id="path16"
         style="fill:none;stroke:#231f20;stroke-width:2.16000009;stroke-linecap:butt;stroke-linejoin:miter;stroke-miterlimit:2.61310005;stroke-dasharray:none;stroke-opacity:1"
         d="M 7.875,1987.11 H 1984.22 V 10.7656 H 7.875 Z" /><path
         id="path18"
         style="fill:#231f20;fill-opacity:1;fill-rule:evenodd;stroke:none"
         d="m 286.418,1318.43 943.022,1.98 c 19.29,0.05 34.08,-4.04 48.41,-10.84 l 189.74,-90.12 c 53.45,-25.38 57.48,-54.44 -3.34,-77.15 l -202.57,-75.62 c -2.55,-0.95 -2.82,-2.54 0.01,-3.78 l 410.45,-180.103 c 6.96,-3.047 8.94,-8.731 6.87,-14.922 h 19.19 c 25.51,0 20.43,-15.941 2.81,-21.531 l -248.33,-78.926 c -5.91,-1.871 -5.25,-5.332 1.27,-9.984 l 81.57,-58.172 c 14.96,-10.664 10.62,-20.305 -0.82,-20.305 h -221.66 l -24.06,18.723 c -2.03,1.586 -2.13,3.652 -1.07,6.008 l 3.22,7.226 c 1.25,2.809 0.08,4.715 -2.47,3.879 L 1175.23,677.461 H 387.445 c -19.343,0 -53.168,17.707 -69.847,36.605 -10.266,11.625 -13.051,30.274 -3.336,43.254 l 52.851,70.668 c 11.149,16.508 33.457,31.926 72.895,35.633 22.894,2.145 43.48,0.719 66.43,1.895 l -136.223,68.199 c -18.844,9.43 -23.207,40.402 -2.645,57.762 L 586.301,1176.21 283.32,1308 c -10.445,4.55 -9.05,10.4 3.098,10.43" /><path
         id="path20"
         style="fill:none;stroke:#231f20;stroke-width:2.16000009;stroke-linecap:butt;stroke-linejoin:miter;stroke-miterlimit:2.61310005;stroke-dasharray:none;stroke-opacity:1"
         d="m 286.418,1318.43 943.022,1.98 c 19.29,0.05 34.08,-4.04 48.41,-10.84 l 189.74,-90.12 c 53.45,-25.38 57.48,-54.44 -3.34,-77.15 l -202.57,-75.62 c -2.55,-0.95 -2.82,-2.54 0.01,-3.78 l 410.45,-180.103 c 6.96,-3.047 8.94,-8.731 6.87,-14.922 h 19.19 c 25.51,0 20.43,-15.941 2.81,-21.531 l -248.33,-78.926 c -5.91,-1.871 -5.25,-5.332 1.27,-9.984 l 81.57,-58.172 c 14.96,-10.664 10.62,-20.305 -0.82,-20.305 h -221.66 l -24.06,18.723 c -2.03,1.586 -2.13,3.652 -1.07,6.008 l 3.22,7.226 c 1.25,2.809 0.08,4.715 -2.47,3.879 L 1175.23,677.461 H 387.445 c -19.343,0 -53.168,17.707 -69.847,36.605 -10.266,11.625 -13.051,30.274 -3.336,43.254 l 52.851,70.668 c 11.149,16.508 33.457,31.926 72.895,35.633 22.894,2.145 43.48,0.719 66.43,1.895 l -136.223,68.199 c -18.844,9.43 -23.207,40.402 -2.645,57.762 L 586.301,1176.21 283.32,1308 c -10.445,4.55 -9.05,10.4 3.098,10.43 z" /><path
         id="path22"
         style="fill:#ed1c24;fill-opacity:1;fill-rule:evenodd;stroke:none"
         d="m 350.156,1304.81 853.474,2.22 c 25.53,0.07 53.19,-0.53 76.04,-11.49 l 142.94,-68.59 c 24.66,-11.83 24.74,-33.28 -7.51,-45.06 l -226.31,-82.66 c -17.42,-6.35 -18.01,-11.28 -0.73,-19 l 394.63,-176.328 -383.85,-1.39 -325.164,156.788 c -34.11,16.45 -23.871,40.1 1.722,48.38 l 272.452,88.11 -547.069,-1.39 -252.277,103.64 c -10.094,4.15 -10.824,6.73 1.652,6.77" /><path
         id="path24"
         style="fill:none;stroke:#231f20;stroke-width:2.16000009;stroke-linecap:butt;stroke-linejoin:miter;stroke-miterlimit:2.61310005;stroke-dasharray:none;stroke-opacity:1"
         d="m 350.156,1304.81 853.474,2.22 c 25.53,0.07 53.19,-0.53 76.04,-11.49 l 142.94,-68.59 c 24.66,-11.83 24.74,-33.28 -7.51,-45.06 l -226.31,-82.66 c -17.42,-6.35 -18.01,-11.28 -0.73,-19 l 394.63,-176.328 -383.85,-1.39 -325.164,156.788 c -34.11,16.45 -23.871,40.1 1.722,48.38 l 272.452,88.11 -547.069,-1.39 -252.277,103.64 c -10.094,4.15 -10.824,6.73 1.652,6.77 z" /><path
         id="path26"
         style="fill:#ed1c24;fill-opacity:1;fill-rule:evenodd;stroke:none"
         d="M 598.398,1163.54 H 879.785 L 735.895,995.703 c -18.875,-22.023 0.464,-31.64 49.148,-40.566 l 210.035,-38.574 -525.246,-2.735 -56.023,25.652 c -9.254,4.25 -17.461,7.129 -22.782,10.985 -18.168,13.148 -13.652,25.754 2.649,39.574 l 204.722,173.501" /><path
         id="path28"
         style="fill:none;stroke:#231f20;stroke-width:2.16000009;stroke-linecap:butt;stroke-linejoin:miter;stroke-miterlimit:2.61310005;stroke-dasharray:none;stroke-opacity:1"
         d="M 598.398,1163.54 H 879.785 L 735.895,995.703 c -18.875,-22.023 0.464,-31.64 49.148,-40.566 l 210.035,-38.574 -525.246,-2.735 -56.023,25.652 c -9.254,4.25 -17.461,7.129 -22.782,10.985 -18.168,13.148 -13.652,25.754 2.649,39.574 z" /><path
         id="path30"
         style="fill:#fff200;fill-opacity:1;fill-rule:evenodd;stroke:none"
         d="m 759.324,823.711 19.942,19.547 c 2.574,2.523 2.113,3.933 -1.809,3.933 H 479.902 c -42.105,0 -81.406,-6.742 -97.711,-28.429 l -49.324,-65.563 c -24.012,-31.937 16.824,-42.011 67.524,-41.91 l 757.749,1.504 c 26,16.23 75.29,27.707 118.06,40.52 l 30.72,-22.325 c 6.26,-4.547 6.99,-11.761 4.21,-17.074 h 161.42 l -83.11,75.508 193.35,59.082 -97.58,1.973 -124.69,-41.356 -42.76,40.047 h -159.02 l 91.39,-73.449 -119.1,-38.824 -60.23,0.66 30.18,41.179 c 11.8,16.106 -9.52,27.754 -55.48,27.754 h -99.988 c -4.446,0 -43.746,-1.984 -22.039,14.223 5.507,4.117 19.476,3.559 29.867,3.59 l 169.86,0.574 18.68,24.293 -239.138,-1.316 c -49.308,-0.27 -91.394,-0.676 -113.836,-19.043 l -14.457,-20.348 c -11.636,-16.379 7.43,-28.113 32.762,-28.231 l 135.285,-0.656 c 13.598,-0.066 18.883,-2.14 12.047,-11.82 l -16.098,-22.82 c -4.425,-6.254 -13.343,-7.649 -27.265,-7.711 l -206.61,-0.981 37.953,54.492 -213.968,0.59 -16.121,-21.601 68.683,-0.18 c 2.453,-0.004 2.731,-2.191 0.852,-4.809 l -14.906,-20.625 c -4.364,-6.015 -12.407,-7.773 -22.11,-7.867 l -64.336,-0.652 c -11.207,-0.113 -14.484,5.676 -7.34,15.094 15.84,20.871 31.68,41.746 47.52,62.613 6.953,7.816 20.898,9.992 38.008,9.605 l 200.519,0.809" /><path
         id="path32"
         style="fill:none;stroke:#231f20;stroke-width:2.16000009;stroke-linecap:butt;stroke-linejoin:miter;stroke-miterlimit:2.61310005;stroke-dasharray:none;stroke-opacity:1"
         d="m 759.324,823.711 19.942,19.547 c 2.574,2.523 2.113,3.933 -1.809,3.933 H 479.902 c -42.105,0 -81.406,-6.742 -97.711,-28.429 l -49.324,-65.563 c -24.012,-31.937 16.824,-42.011 67.524,-41.91 l 757.749,1.504 c 26,16.23 75.29,27.707 118.06,40.52 l 30.72,-22.325 c 6.26,-4.547 6.99,-11.761 4.21,-17.074 h 161.42 l -83.11,75.508 193.35,59.082 -97.58,1.973 -124.69,-41.356 -42.76,40.047 h -159.02 l 91.39,-73.449 -119.1,-38.824 -60.23,0.66 30.18,41.179 c 11.8,16.106 -9.52,27.754 -55.48,27.754 h -99.988 c -4.446,0 -43.746,-1.984 -22.039,14.223 5.507,4.117 19.476,3.559 29.867,3.59 l 169.86,0.574 18.68,24.293 -239.138,-1.316 c -49.308,-0.27 -91.394,-0.676 -113.836,-19.043 l -14.457,-20.348 c -11.636,-16.379 7.43,-28.113 32.762,-28.231 l 135.285,-0.656 c 13.598,-0.066 18.883,-2.14 12.047,-11.82 l -16.098,-22.82 c -4.425,-6.254 -13.343,-7.649 -27.265,-7.711 l -206.61,-0.981 37.953,54.492 -213.968,0.59 -16.121,-21.601 68.683,-0.18 c 2.453,-0.004 2.731,-2.191 0.852,-4.809 l -14.906,-20.625 c -4.364,-6.015 -12.407,-7.773 -22.11,-7.867 l -64.336,-0.652 c -11.207,-0.113 -14.484,5.676 -7.34,15.094 15.84,20.871 31.68,41.746 47.52,62.613 6.953,7.816 20.898,9.992 38.008,9.605 z" /></g></g></svg>