<?xml version="1.0" encoding="UTF-8" standalone="no"?>
<!-- Created with Inkscape (http://www.inkscape.org/) -->

<svg
   xmlns:dc="http://purl.org/dc/elements/1.1/"
   xmlns:cc="http://creativecommons.org/ns#"
   xmlns:rdf="http://www.w3.org/1999/02/22-rdf-syntax-ns#"
   xmlns:svg="http://www.w3.org/2000/svg"
   xmlns="http://www.w3.org/2000/svg"
   xmlns:sodipodi="http://sodipodi.sourceforge.net/DTD/sodipodi-0.dtd"
   xmlns:inkscape="http://www.inkscape.org/namespaces/inkscape"
   width="74mm"
   height="52mm"
   viewBox="0 0 74 52"
   version="1.1"
   id="SVGRoot"
   inkscape:version="0.92.3 (2405546, 2018-03-11)"
   sodipodi:docname="logo.svg">
  <sodipodi:namedview
     id="base"
     pagecolor="#ffffff"
     bordercolor="#666666"
     borderopacity="1.0"
     inkscape:pageopacity="0.0"
     inkscape:pageshadow="2"
     inkscape:zoom="2"
     inkscape:cx="139.5"
     inkscape:cy="98"
     inkscape:document-units="mm"
     inkscape:current-layer="layer1"
     showgrid="false"
     inkscape:window-width="1920"
     inkscape:window-height="1018"
     inkscape:window-x="-8"
     inkscape:window-y="-8"
     inkscape:window-maximized="1" />
  <defs
     id="defs88" />
  <metadata
     id="metadata91">
    <rdf:RDF>
      <cc:Work
         rdf:about="">
        <dc:format>image/svg+xml</dc:format>
        <dc:type
           rdf:resource="http://purl.org/dc/dcmitype/StillImage" />
        <dc:title></dc:title>
      </cc:Work>
    </rdf:RDF>
  </metadata>
  <g
     id="layer1"
     inkscape:groupmode="layer"
     inkscape:label="Layer 1">
    <path
       style="fill:#0000ff;stroke-width:0.26458332"
       id="path104"
       d="m 21.407675,37.18243 c -0.450292,-0.08356 -0.930232,-0.142637 -1.378172,-0.02318 -0.676677,0.324753 -0.345467,0.169916 1.405684,-0.80519 0.04011,-0.02233 -0.07797,0.04859 -0.115509,0.07503 -0.10391,0.07318 -0.171356,0.150627 -0.244059,0.253574 -0.139471,0.219345 -0.240088,0.456332 -0.300874,0.708382 -0.06174,0.252891 -0.03284,0.504735 0.02647,0.754422 0.05554,0.270256 0.231984,0.470358 0.429027,0.652023 0.335576,0.300736 0.759978,0.481696 1.17188,0.652817 0.720942,0.205857 1.45396,0.372481 2.18239,0.55294 0.768932,0.186968 1.54481,0.32599 2.332684,0.397976 0.394994,0.01299 0.79561,0.07584 1.190651,0.02656 0.06168,-0.0077 0.387051,-0.07758 0.450596,-0.09098 0.758976,-0.221028 2.488695,-1.299594 -0.448923,0.385979 0.350324,-0.193019 0.630531,-0.456811 0.805174,-0.81648 0.11063,-0.294664 0.111051,-0.612286 0.116446,-0.922676 0.02781,-0.378579 -0.129537,-0.699088 -0.329996,-1.008714 -0.310862,-0.446381 -0.712214,-0.811019 -1.120931,-1.164119 -0.365639,-0.302873 -0.793438,-0.503221 -1.213554,-0.716068 -0.509734,-0.258416 -1.043084,-0.460071 -1.573731,-0.669658 -0.426455,-0.16306 -0.87102,-0.260934 -1.324942,-0.299614 -0.3473,8.5e-5 -0.688056,-0.06597 -1.032178,-0.104478 -0.137031,-0.01162 -0.299593,-0.02371 -0.433964,0.01979 -0.04489,0.01453 -0.165916,0.08991 -0.124838,0.0667 1.641591,-0.927389 2.060224,-1.225963 1.451947,-0.800492 -0.120076,0.09217 -0.211366,0.208201 -0.298722,0.329835 0,0 -1.796893,0.79356 -1.796893,0.79356 v 0 c 0.0755,-0.141206 0.153914,-0.2773 0.274734,-0.386192 0.668534,-0.681444 1.569957,-1.289981 2.529117,-1.157692 0.342042,0.04383 0.683333,0.08797 1.028096,0.104354 0.461243,0.05938 0.910098,0.180079 1.343089,0.350732 0.536751,0.210799 1.072064,0.424424 1.589007,0.681315 0.433954,0.219282 0.868463,0.437738 1.240229,0.757182 0.416065,0.369806 0.82309,0.752375 1.14441,1.210818 0.22465,0.33374 0.421132,0.687605 0.398468,1.103146 5.29e-4,0.331883 -0.0036,0.66702 -0.08311,0.991277 -0.143991,0.398153 -0.397639,0.717164 -0.765418,0.93593 -0.91303,0.527087 -1.869758,1.233762 -2.932091,1.493803 -0.551553,0.09596 -1.104424,0.06973 -1.659788,0.0083 -0.790619,-0.08487 -1.569018,-0.237453 -2.341617,-0.425281 -0.739883,-0.180998 -1.489377,-0.334864 -2.214524,-0.567369 -0.433728,-0.182687 -0.873177,-0.38022 -1.222946,-0.703025 -0.21973,-0.209534 -0.420228,-0.440923 -0.488205,-0.745469 -0.07579,-0.271481 -0.118112,-0.554019 -0.06795,-0.834271 0.04796,-0.274351 0.136897,-0.528063 0.269545,-0.773369 0.04325,-0.07418 0.07885,-0.153244 0.12883,-0.223065 0.04917,-0.0687 0.127793,-0.145317 0.200774,-0.187909 1.798013,-1.049338 1.149965,-0.8586 1.988219,-1.085411 0.47666,-0.05734 0.9598,-0.0043 1.429863,0.08442 0,0 -1.614394,1.119825 -1.614394,1.119825 z"
       inkscape:connector-curvature="0" />
    <path
       style="fill:#0000ff;stroke-width:0.26458332"
       id="path106"
       d="m 12.076422,37.970213 c 0.855653,-0.507304 1.720695,-0.997775 2.583402,-1.493305 0.116331,-0.06682 0.232867,-0.133281 0.349504,-0.199565 0.112324,-0.06383 0.449121,-0.25563 0.337377,-0.190783 -0.437994,0.254167 -0.877431,0.505841 -1.316146,0.758764 1.077057,-0.547968 2.058148,-1.273595 3.1737,-1.743353 0.447009,-0.163467 0.884268,-0.350374 1.323569,-0.534098 0.501663,-0.217432 1.000362,-0.442727 1.508273,-0.64552 0.447081,-0.195384 0.908708,-0.356629 1.374565,-0.501245 0.640445,-0.164521 1.270502,-0.363289 1.918508,-0.498782 0.485625,-0.0741 0.970479,-0.159361 1.458155,-0.218972 0.576431,-0.0389 1.15241,-0.08279 1.729043,-0.121126 0.556035,-0.03986 1.112658,-0.03803 1.664523,-0.119658 0.550939,-0.08185 1.105321,-0.06179 1.659035,-0.03295 0.331751,0.03201 0.662385,0.07415 0.993196,0.114417 0,0 -1.587185,1.123135 -1.587185,1.123135 v 0 c -0.325081,-0.04209 -0.650164,-0.08652 -0.977617,-0.106236 -0.553786,-0.0199 -1.107006,-0.0131 -1.656019,0.07242 -0.549302,0.06095 -1.103122,0.05022 -1.653701,0.09765 -0.579398,0.04388 -1.159574,0.08312 -1.737428,0.142864 -0.479256,0.0717 -0.961015,0.127881 -1.436513,0.222097 -0.644926,0.146529 -1.276953,0.340037 -1.913605,0.518242 -0.462758,0.152289 -0.919717,0.322704 -1.367162,0.515662 -0.502319,0.213887 -1.006364,0.423299 -1.50517,0.645277 -0.439467,0.187833 -0.885363,0.357719 -1.327282,0.539167 -0.691743,0.307901 -2.613124,1.443998 0.162775,-0.161459 -0.663445,0.382836 -1.326437,0.766458 -1.990334,1.148511 -0.111352,0.06408 -0.223647,0.126506 -0.335401,0.189881 -0.348219,0.197477 -2.094906,1.192681 0.948591,-0.555543 0.185876,-0.10677 -0.656977,0.392703 -0.552427,0.329198 0,0 -1.828226,0.70532 -1.828226,0.70532 z"
       inkscape:connector-curvature="0" />
    <path
       style="fill:#0000ff;stroke-width:0.26458332"
       id="path108"
       d="m 29.491291,34.126723 c 0.417449,-0.558544 0.848347,-1.108314 1.331849,-1.61131 0.461868,-0.48028 1.013222,-0.849636 1.577695,-1.196377 0.472284,-0.274738 0.939676,-0.556213 1.378506,-0.882253 0.837464,-0.687824 1.788742,-1.218973 2.772939,-1.674215 0.776086,-0.23676 1.543827,-0.499295 2.308555,-0.771557 0.648333,-0.269433 1.302486,-0.520472 1.96197,-0.760833 0.466366,-0.15557 0.94533,-0.268637 1.418879,-0.400187 0,0 -1.54985,1.191209 -1.54985,1.191209 v 0 c -0.469384,0.129196 -0.945187,0.238826 -1.402834,0.406996 -0.652259,0.235153 -1.294037,0.495588 -1.941539,0.743256 -0.772253,0.273355 -1.554715,0.519393 -2.32129,0.806278 -0.740463,0.356984 -0.315389,0.159613 1.256168,-0.760555 0.05946,-0.03481 -0.119486,0.06874 -0.177668,0.10564 -0.251907,0.159785 -0.0874,0.06044 -0.32693,0.253611 -0.05951,0.04799 -0.122669,0.09126 -0.184002,0.13688 -0.434207,0.341188 -0.900488,0.632764 -1.379188,0.907542 -0.574154,0.325141 -1.128911,0.690991 -1.602301,1.153758 -0.495797,0.474006 -0.909534,1.02099 -1.324065,1.565915 0,0 -1.796894,0.786202 -1.796894,0.786202 z"
       inkscape:connector-curvature="0" />
    <path
       style="fill:#0000ff;stroke-width:0.26458332"
       id="path110"
       d="m 40.242958,27.081392 c 0.854138,-0.0021 1.705776,0.06712 2.55637,0.137425 0.720785,0.06162 1.44287,0.105069 2.166014,0.124045 0.749779,-0.01757 1.492599,0.05415 2.236086,0.142285 1.245685,0.169399 2.48035,0.401857 3.730273,0.54012 0.613709,0.06959 1.2363,0.09236 1.845942,0.196974 0.19094,0.03276 0.72716,0.155927 0.902648,0.195334 1.22107,0.333759 2.45683,0.60162 3.697192,0.851313 0.856117,0.196972 1.732555,0.244861 2.602132,0.341021 0.994561,0.155615 1.958795,0.456912 2.923019,0.738527 0.892526,0.237016 1.772816,0.522671 2.670214,0.74128 0.229521,0.06066 0.447133,0.145653 0.665083,0.23786 0,0 -1.635487,1.090745 -1.635487,1.090745 v 0 C 64.3955,32.330196 64.183955,32.257346 63.968058,32.193875 63.08785,31.945995 62.22063,31.653032 61.335747,31.420813 60.3686,31.144128 59.397375,30.860828 58.396703,30.733772 c -0.864325,-0.09383 -1.729798,-0.183084 -2.578926,-0.379235 -1.242674,-0.259948 -2.481514,-0.534331 -3.713295,-0.842465 -0.900795,-0.186508 -1.809313,-0.306938 -2.726208,-0.385107 -1.249153,-0.148867 -2.483699,-0.392252 -3.733522,-0.536183 -0.751925,-0.07315 -1.502945,-0.111998 -2.25852,-0.108437 -0.717101,-0.02773 -1.432002,-0.08763 -2.146848,-0.149786 -0.859626,-0.07167 -1.721461,-0.127018 -2.584606,-0.09729 0,0 1.58818,-1.15388 1.58818,-1.15388 z"
       inkscape:connector-curvature="0" />
    <path
       style="fill:#0000ff;stroke-width:0.26458332"
       id="path112"
       d="m 57.806616,36.065655 c -0.615926,0.110967 -1.240994,0.136787 -1.854526,0.261819 -0.218307,0.04838 -0.321447,0.06357 -0.528031,0.137319 -0.655773,0.234108 -2.060432,1.119896 1.009274,-0.628947 -0.184325,0.133903 -0.353359,0.268306 -0.483709,0.455922 -0.103383,0.194691 -0.200146,0.391332 -0.25414,0.605642 -0.03469,0.242575 0.04223,0.469397 0.175721,0.668422 0.441102,0.408504 0.90489,0.793147 1.37919,1.163013 0.408689,0.28479 0.782164,0.638861 1.241013,0.843053 0.366739,0.100168 0.754184,0.08605 1.131324,0.08869 0.329932,-0.01209 0.663601,0.02368 0.991743,-0.02466 0.167052,-0.02461 0.300532,-0.06795 0.463047,-0.113591 0.528362,-0.133858 1.042696,-0.32635 1.526598,-0.576683 -2.780752,1.55284 -1.346322,0.895691 -0.875834,0.360905 0.120353,-0.136803 0.123989,-0.161721 0.211563,-0.317116 0.124783,-0.299778 0.206314,-0.614233 0.253992,-0.934781 0.03291,-0.325234 0.04963,-0.654386 0.02598,-0.980718 -0.0575,-0.346162 -0.278897,-0.620413 -0.505478,-0.87517 -0.274363,-0.281572 -0.617135,-0.471728 -0.987954,-0.592389 -0.407927,-0.09776 -0.818698,-0.166807 -1.236589,-0.202875 -0.386159,-0.0277 -0.773567,-0.02765 -1.160502,-0.02747 -0.317243,0.01781 -0.593026,0.148154 -0.863687,0.303644 2.831936,-1.671304 1.681771,-0.99745 1.077182,-0.575458 0,0 -1.828512,0.722918 -1.828512,0.722918 v 0 c 0.717003,-0.530881 1.480958,-0.954045 2.282995,-1.376463 0.292833,-0.136771 0.589558,-0.237659 0.918514,-0.226192 0.389615,0.0037 0.780079,0.0061 1.168143,0.04472 0.427832,0.04785 0.852194,0.122036 1.266587,0.240831 0.390089,0.153165 0.748181,0.369589 1.03786,0.676929 0.253082,0.287628 0.49303,0.595336 0.571315,0.979866 0.0382,0.337976 0.01392,0.680093 -0.0036,1.019093 -0.04031,0.340505 -0.124294,0.668922 -0.233551,0.993886 -0.429681,1.03931 -1.810417,1.47293 -2.637692,1.979001 -0.500345,0.231489 -1.01917,0.423011 -1.556856,0.548696 -0.490249,0.109445 -0.985112,0.11167 -1.485977,0.09923 -0.399915,-0.0048 -0.815104,0.005 -1.189672,-0.155459 -0.448273,-0.243199 -0.826945,-0.59395 -1.237988,-0.892402 -0.490024,-0.385215 -0.986002,-0.76862 -1.437074,-1.198938 -0.164454,-0.241544 -0.253457,-0.509522 -0.253664,-0.804413 0.03899,-0.238194 0.124114,-0.447421 0.22715,-0.663194 0.109263,-0.225285 0.248087,-0.390467 0.457899,-0.528677 1.008113,-0.600303 1.77048,-1.22238 2.892324,-1.405599 0.625232,-0.105106 1.258671,-0.149336 1.882534,-0.26497 0,0 -1.576927,1.172583 -1.576927,1.172583 z"
       inkscape:connector-curvature="0" />
    <path
       style="fill:#0000ff;stroke-width:0.26458332"
       id="path114"
       d="m 13.946844,37.798269 c 0.834761,0.02832 1.67069,-0.01249 2.504886,0.02633 0.528863,0.02513 1.054232,0.07397 1.57229,0.184422 0.403477,0.107344 0.824629,0.114237 1.231464,0.196781 0,0 -1.607289,1.12494 -1.607289,1.12494 v 0 c -0.409422,-0.06251 -0.820875,-0.112636 -1.225216,-0.205587 -0.509424,-0.09267 -1.024187,-0.141226 -1.541066,-0.170209 -0.839396,-0.03243 -1.680055,-0.01479 -2.519806,-0.0053 0,0 1.584737,-1.151379 1.584737,-1.151379 z"
       inkscape:connector-curvature="0" />
    <path
       style="fill:#0000ff;stroke-width:0.26458332"
       id="path116"
       d="m 32.431918,38.434798 c 0.759219,-0.04111 1.515441,-0.11924 2.274274,-0.167561 1.053211,-0.10827 2.111131,-0.143885 3.169047,-0.163488 1.666091,0.0205 3.326812,0.17644 4.989856,0.269843 1.03287,0.05738 2.067023,0.08307 3.101316,0.09284 1.094642,-0.0033 2.187374,0.01138 3.280304,0.07421 1.454799,0.09357 2.911732,0.145867 4.369105,0.175331 0,0 -1.553316,1.121436 -1.553316,1.121436 v 0 c -1.448874,-0.05812 -2.897511,-0.1227 -4.345654,-0.196902 -1.105189,-0.04718 -2.20984,-0.04088 -3.315817,-0.03997 -1.021585,-0.01781 -2.042144,-0.06665 -3.061756,-0.132409 -1.663872,-0.108021 -3.328011,-0.262673 -4.996865,-0.245099 -1.063977,0.03123 -2.126951,0.08156 -3.186599,0.18637 -0.767795,0.05288 -1.534038,0.125383 -2.300412,0.194982 0,0 1.576517,-1.169588 1.576517,-1.169588 z"
       inkscape:connector-curvature="0" />
    <path
       style="fill:#0000ff;stroke-width:0.26458332"
       id="path118"
       d="m 65.067457,32.519209 c -3.481858,2.038327 -1.605997,0.923317 -1.205084,0.691468 0.645636,-0.373375 1.288544,-0.751539 1.93767,-1.118815 0.258138,-0.146055 0.543563,-0.248803 0.814269,-0.368749 0.712128,-0.361337 2.245479,-1.262118 -0.78781,0.483073 4.840859,-2.784795 0.164422,-0.09419 0.207676,-0.12052 0.819732,-0.498941 1.377331,-0.892916 2.175195,-1.184619 0.229656,-0.119838 0.482836,-0.209135 0.696876,-0.355373 0.722828,-0.259328 1.771319,-0.929023 -1.116928,0.713748 0.190606,-0.116432 0.353896,-0.270576 0.529534,-0.40764 0.166516,-0.111139 0.317143,-0.253627 0.418963,-0.427035 1.158764,-0.504873 1.709248,-1.450764 1.84514,-0.630711 0.04239,0.255804 0.02551,0.52524 0.0241,0.783333 -0.0042,0.34989 -0.01027,0.69973 -0.01236,1.049642 -0.0036,0.32072 -0.0024,0.641469 -0.0019,0.962199 0.0019,0.278768 0.01048,0.556133 -0.02971,0.832551 -0.05117,0.263684 -0.07667,0.530519 -0.09209,0.798322 -0.01606,0.314736 -0.0021,0.630217 -0.02252,0.944632 -0.04387,0.276492 -0.08402,0.552286 -0.103002,0.831741 -0.02379,0.295728 -0.09859,0.581946 -0.174893,0.867299 -0.04941,0.174043 -0.06797,0.439484 -0.247576,0.542309 -0.594357,0.340283 -1.197506,0.664974 -1.796261,0.99746 -0.253217,0.03194 -0.50922,0.02658 -0.763894,0.02506 -0.328706,0.05874 -0.661353,0.08925 -0.994524,0.106855 -0.330478,0.01564 -0.661361,0.01947 -0.992159,0.01939 -0.556728,-0.06923 -1.114168,-0.13085 -1.670436,-0.204192 -0.768263,-0.07741 -1.533094,-0.183851 -2.300504,-0.268867 -0.07974,-0.0076 -0.159478,-0.01513 -0.239215,-0.0227 0,0 1.591556,-1.130572 1.591556,-1.130572 v 0 c 0.07868,0.0094 0.157353,0.01881 0.236029,0.02822 0.761318,0.09994 1.521786,0.204984 2.286185,0.279501 0.560047,0.06405 1.121177,0.129238 1.683764,0.164187 0.327739,-0.0031 0.655706,-0.0055 0.982863,-0.02742 0.336762,-0.02655 0.6706,-0.07765 1.00734,-0.100581 0.243086,-0.0021 0.494525,0.0046 0.725657,-0.08133 -0.531606,0.308235 -1.067279,0.609561 -1.594818,0.924706 -0.02892,0.01728 0.06579,-0.01606 0.09659,-0.02969 0.153612,-0.06798 0.193937,-0.221197 0.216194,-0.374436 0.06881,-0.277532 0.158099,-0.548574 0.19269,-0.833985 0.01474,-0.282123 0.03573,-0.56365 0.09868,-0.839933 0.04781,-0.307978 0.0077,-0.622642 0.02811,-0.933291 0.0078,-0.274413 0.0274,-0.548715 0.07996,-0.818674 0.04936,-0.267359 0.05375,-0.532643 0.04548,-0.804709 7.93e-4,-0.321498 0.0024,-0.642993 0.0029,-0.964494 0.0037,-0.350716 0.008,-0.701434 0.01648,-1.05207 0.0028,-0.195469 0.0067,-0.3911 -0.0016,-0.586508 -0.0393,-0.909124 -0.446283,-0.12724 1.683256,-1.250947 -0.11684,0.181234 -0.214945,0.37142 -0.392081,0.505995 -0.194278,0.113323 -0.355111,0.269261 -0.523068,0.415726 -0.59177,0.338749 -1.181815,0.680524 -1.775304,1.016246 -0.09095,0.05145 -0.196689,0.07121 -0.290859,0.116348 -0.04774,0.02289 -0.141137,0.07685 -0.18683,0.102732 -0.237004,0.110879 -0.464252,0.242248 -0.711343,0.331375 -0.01286,0.0055 -0.242192,0.103188 -0.25491,0.109167 -0.03863,0.01815 -0.15062,0.08026 -0.113832,0.05862 0.522764,-0.307469 2.090232,-1.231132 1.571921,-0.916215 -0.524729,0.318818 -3.941887,2.294988 -0.205396,0.130456 -0.851471,0.492937 -1.683724,1.016331 -2.574173,1.435084 -0.0823,0.03624 -0.164947,0.07171 -0.24691,0.108709 -0.08948,0.0404 -0.179427,0.07988 -0.267393,0.123481 -0.09526,0.04722 -0.373634,0.202936 -0.282091,0.148863 2.933645,-1.732841 1.580661,-0.911577 1.13579,-0.653614 -0.62852,0.364453 -1.25768,0.727798 -1.886521,1.091695 0,0 1.527162,-1.232503 1.527162,-1.232503 z"
       inkscape:connector-curvature="0" />
    <path
       style="fill:#0000ff;stroke-width:0.26458332"
       id="path120"
       d="m 33.363791,32.108476 c 1.300901,0.05815 2.602191,0.100682 3.904348,0.123862 0.959866,0.02196 1.917314,0.0363 2.873563,-0.05435 0.75338,-0.06787 1.511892,-0.04739 2.26745,-0.04697 1.069014,2.65e-4 2.13801,-0.0069 3.206983,-0.01561 0.434885,-0.0036 0.869788,-0.0055 1.304686,-0.007 0.360289,0.02066 0.714616,-0.03493 1.072672,-0.0635 0.530137,-0.08646 1.052967,-0.206131 1.586206,-0.276005 0.395073,-0.04887 0.793533,-0.05495 1.191053,-0.05849 0.358722,-0.0374 0.688687,-0.164354 0.990725,-0.356809 -2.913666,1.827559 -1.252064,0.679238 -0.621819,0.183065 0.231614,-0.200313 0.490122,-0.365998 0.727099,-0.559379 0.646996,-0.543039 1.376945,-0.850853 2.13568,-1.299816 0.527711,-0.312264 -1.063517,0.610645 -1.595274,0.915969 0,0 1.836825,-0.711981 1.836825,-0.711981 v 0 c -1.380035,0.799097 -3.195799,1.852618 -0.192093,0.105556 0.184211,-0.107143 -0.547327,0.321397 -0.355915,0.261609 -0.252611,0.177959 -0.488481,0.381257 -0.743767,0.557075 -0.172945,0.15045 -0.354616,0.2745 -0.538486,0.410205 -0.736113,0.54329 -0.961882,1.035365 -2.176658,1.370237 -0.327789,0.164709 -0.680849,0.271836 -1.050496,0.278199 -0.390948,0.0061 -0.782468,0.01926 -1.170239,0.07339 -0.532844,0.07684 -1.056383,0.204891 -1.591045,0.268396 -0.363736,0.03703 -0.72629,0.0738 -1.092648,0.05605 -0.427794,-0.0019 -0.855588,-0.0044 -1.283366,-0.0084 -1.059146,-0.0092 -2.118376,-0.01508 -3.177532,-0.0041 -0.766588,0.01109 -1.534345,0.01696 -2.298377,0.08747 -0.940306,0.06454 -1.881259,0.007 -2.82257,-0.0069 -1.324809,-0.02814 -2.650231,-0.07058 -3.975185,-0.06788 0,0 1.58818,-1.153879 1.58818,-1.153879 z"
       inkscape:connector-curvature="0" />
  </g>
</svg>
